<?xml version="1.0" encoding="UTF-8"?>
<svg id="Layer_2" data-name="Layer 2" xmlns="http://www.w3.org/2000/svg" viewBox="0 0 801 801">
  <defs>
    <style>
      .cls-1 {
        fill: none;
        stroke: #2a2a2a;
        stroke-miterlimit: 10;
        stroke-width: 70px;
      }

      .cls-2 {
        fill: #2a2a2a;
      }

      .cls-2, .cls-3 {
        stroke-width: 0px;
      }

      .cls-3 {
        fill: #fff;
      }
    </style>
  </defs>
  <g id="Layer_1-2" data-name="Layer 1">
    <g>
      <path class="cls-3" d="M400.5,776c-50.7,0-99.88-9.92-146.15-29.5-44.71-18.91-84.87-45.99-119.36-80.48s-61.57-74.65-80.48-119.37c-19.57-46.28-29.5-95.45-29.5-146.15s9.92-99.88,29.5-146.15c18.91-44.71,45.99-84.87,80.48-119.36,34.49-34.49,74.65-61.57,119.36-80.48,46.28-19.57,95.45-29.5,146.15-29.5s99.88,9.92,146.15,29.5c44.71,18.91,84.87,45.99,119.36,80.48,34.49,34.49,61.57,74.65,80.48,119.36,19.57,46.28,29.5,95.45,29.5,146.15s-9.92,99.88-29.5,146.15c-18.91,44.71-45.99,84.87-80.48,119.37s-74.65,61.57-119.36,80.48c-46.28,19.57-95.45,29.5-146.15,29.5Z"/>
      <path class="cls-2" d="M400.5,50c47.34,0,93.24,9.26,136.42,27.52,41.73,17.65,79.22,42.93,111.43,75.14,32.21,32.21,57.48,69.69,75.14,111.43,18.26,43.18,27.52,89.08,27.52,136.42s-9.26,93.24-27.52,136.41c-17.65,41.73-42.93,79.22-75.14,111.43s-69.69,57.48-111.43,75.14c-43.18,18.26-89.08,27.52-136.42,27.52s-93.24-9.26-136.41-27.52c-41.73-17.65-79.22-42.93-111.43-75.14s-57.48-69.69-75.14-111.43c-18.26-43.18-27.52-89.08-27.52-136.41s9.26-93.24,27.52-136.42c17.65-41.73,42.93-79.22,75.14-111.43,32.21-32.21,69.69-57.48,111.43-75.14,43.18-18.26,89.08-27.52,136.41-27.52M400.5,0C179.31,0,0,179.31,0,400.5s179.31,400.5,400.5,400.5,400.5-179.31,400.5-400.5S621.69,0,400.5,0h0Z"/>
    </g>
    <line class="cls-1" x1="577.92" y1="223.08" x2="223.08" y2="577.92"/>
    <line class="cls-1" x1="223.08" y1="223.08" x2="577.92" y2="577.92"/>
  </g>
</svg>